<svg height="512" viewBox="0 0 60 60" width="512" xmlns="http://www.w3.org/2000/svg"><g id="Page-1" fill="none" fill-rule="evenodd"><g id="004---Cooking-Podcast" fill-rule="nonzero"><path id="Shape" d="m51 30c.0018858 9.5082688-6.3850868 17.8314335-15.57 20.29l-3.64 7.6c-.338327.678829-1.0315318 1.1078677-1.79 1.1078677s-1.451673-.4290387-1.79-1.1078677l-3.64-7.6c-10.5184568-2.8155225-17.14009799-13.2037619-15.25182605-23.9275452 1.88827195-10.7237833 11.66001185-18.22543305 22.50754335-17.2787762 10.8475316.9466568 19.172123 10.0275614 19.1742827 20.9163214z" fill="#009688"/><path id="Shape" d="m30 9c-.51 0-1 0-1.5.08 10.2013679.76226327 18.3691996 8.7643908 19.3403611 18.9479952.9711615 10.1836043-5.5369505 19.5853062-15.4103611 22.2620048l-3.64 7.6c-.079145.1513219-.1765377.2923734-.29.42.4385924.4999266 1.0969971.7491378 1.7566921.6649214.659695-.0842163 1.2343757-.4908427 1.5333079-1.0849214l3.64-7.6c10.1889855-2.7189339 16.7813251-12.5726181 15.4063347-23.0281157-1.3749903-10.4554976-10.2908159-18.26972102-20.8363347-18.2618843z" fill="#00695c"/><path id="Shape" d="m23 27-.47 3.03" fill="#f5f5f5"/><path id="Shape" d="m37.58 30.79-.53-3.46" fill="#f5f5f5"/><path id="Shape" d="m39 40c0 1.66-4 3-9 3s-9-1.34-9-3v-.25s0 0 0-.06c.46-1.51 4.29-2.69 9-2.69s8.49 1.18 9 2.69v.06z" fill="#545c60"/><path id="Shape" d="m24.14 18.42c-.4263184.4916474-.8078365 1.0204181-1.14 1.58" fill="#f5f5f5"/><path id="Shape" d="m45 25.52c-.3482842 2.2784654-1.8667998 4.2069803-4 5.08-1.0929563.4314335-2.2960795.4980788-3.43.19l1.43 8.9c-.51-1.51-4.34-2.69-9-2.69s-8.49 1.18-8.95 2.69l1.48-9.69h-.29c-1.9804056.1197987-3.9009538-.7032934-5.18-2.22-3.14-3.85 1.19-8.77 6.56-9.29l.52-.06c1.24-1.43 3.45-3.43 6.39-3.43 3.5333333 0 6 1.1233333 7.4 3.37 3.71-.01 7.51 3.32 7.07 7.15z" fill="#f5f5f5"/><path id="Shape" d="m37.93 18.37c-1.4-2.2466667-3.8666667-3.37-7.4-3.37-.4061075.0037865-.8110594.0439471-1.21.12 2.2767403.1418171 4.354437 1.3454739 5.61 3.25 3.71 0 7.51 3.32 7.07 7.15-.3482842 2.2784654-1.8667998 4.2069803-4 5.08-1.0929563.4314335-2.2960795.4980788-3.43.19l1.06 6.87c1.82.49 3.06 1.21 3.31 2l-1.37-8.9c1.1307064.3176427 2.3337736.2615229 3.43-.16 2.1332002-.8730197 3.6517158-2.8015346 4-5.08.44-3.83-3.36-7.16-7.07-7.15z" fill="#cfd8dc"/><path id="Shape" d="m37.93 18.37c-.5065197.0018915-1.0106797.0691128-1.5.2" fill="#f5f5f5"/><g fill="#000"><path id="Shape" d="m26.14 2.27c5.00075-.69837905 10.0972897-.03150978 14.75 1.93.1221817.05610928.2555956.08347623.39.08.4748325-.00090886.883553-.33560761.9780733-.80093824.0945202-.46533064-.1512258-.9329679-.5880733-1.11906176-3.6909898-1.56578372-7.6606346-2.36855681-11.67-2.36-1.3846291.00295982-2.7675818.09649285-4.14.28-.5522847.07731987-.9373199.58771525-.86 1.14s.5877153.93731986 1.14.86z"/><path id="Shape" d="m18.72 4.28c.1344044.00347623.2678183-.02389072.39-.08 1.034159-.43421705 2.0925978-.80817649 3.17-1.12.2597331-.06576306.4822128-.23300343.6175651-.4642302.1353522-.23122677.1722547-.50709772.1024349-.7657698-.0721334-.25645198-.2436137-.47352086-.4764036-.60305722-.23279-.12953636-.5076446-.16083119-.7635964-.08694278-1.1522683.33406555-2.2841723.73473953-3.39 1.2-.4368475.18609386-.6825935.65373112-.5880733 1.11906176.0945203.46533063.5032408.80002938.9780733.80093824z"/><path id="Shape" d="m30 4c-3.4730553-.01594185-6.9141056.66410762-10.12 2-.5108634.21539106-.750391.80413661-.535 1.31499999.2153911.51086339.8041366.75039105 1.315.53500001 5.9736866-2.51015765 12.7063134-2.51015765 18.68 0 .1239863.05038299.2561911.07750192.39.08.4845092.01120358.9073135-.32662658 1.0033054-.80166367.095992-.47503708-.1624619-.95053081-.6133054-1.12833633-3.2058944-1.33589238-6.6469447-2.01594185-10.12-2z"/><path id="Shape" d="m1.29 35h.14c.5422674-.077514.92124561-.5768735.85-1.12-.17865675-1.285758-.27219367-2.5819126-.28-3.88-.00299613-3.7459019.75216244-7.4536624 2.22-10.9.14111991-.3286843.09616908-.7076878-.11791996-.9942434-.21408903-.2865556-.56479106-.4371287-.92-.395-.35520895.0421288-.66096014.2705591-.80208004.5992434-2.09679774 4.9885972-2.81515778 10.4488242-2.08 15.81.06057605.501169.48518533.8785995.99.88z"/><path id="Shape" d="m1.86 37c-.25460783.0742606-.46928767.2466223-.59681241.4791674s-.15744821.5062248-.08318759.7608326c.33113556 1.1532087.73187044 2.2852847 1.2 3.39.1564992.3695049.5187198.609673.92.61.13380889-.0024981.26601366-.029617.39-.08.50778259-.2157051.74494317-.8018944.53-1.31-.43473331-1.0237402-.80871583-2.0722269-1.12-3.14-.06780055-.2601408-.23748648-.482027-.47078139-.6156071-.23329492-.1335802-.51054796-.1676027-.76921861-.0943929z"/><path id="Shape" d="m6.06 40.1c.1564992.3695049.5187198.609673.92.61.13431127.002446.26749827-.0248744.39-.08.50778259-.2157051.74494317-.8018944.53-1.31-2.50677448-5.974368-2.50677448-12.705632 0-18.68.21494317-.5081056-.02221741-1.0942949-.53-1.31-.50810558-.2149432-1.09429492.0222174-1.31.53-2.72017719 6.4724808-2.72017719 13.7675192 0 20.24z"/><path id="Shape" d="m58 30c-.0016171 1.2943089-.0884718 2.5871063-.26 3.87-.0779371.5400232.2913885 1.0428399.83 1.13h.14c.501932.0049401.9297504-.3629837 1-.86.7351578-5.3611758.0167977-10.8214028-2.08-15.81-.1411199-.3286844-.4468711-.5571147-.80208-.5992434-.355209-.0421288-.705911.1084444-.9200001.395-.214089.2865556-.2590398.6655591-.1179199.9942434 1.4617646 3.4408563 2.2134618 7.1415196 2.21 10.88z"/><path id="Shape" d="m56.31 42.18c.1239863.050383.2561911.0775019.39.08.4012802-.000327.7635008-.2404951.92-.61.4681296-1.1047153.8688644-2.2367913 1.2-3.39.1204379-.3496889.038034-.7372986-.2142426-1.0077502-.2522767-.2704517-.6332269-.3795781-.9904364-.2837188-.3572094.0958593-.6323424.3810496-.715321.741469-.3105356 1.0745482-.6845255 2.129734-1.12 3.16-.2149432.5081056.0222174 1.0942949.53 1.31z"/><path id="Shape" d="m52.63 40.63c.1225017.0551256.2556887.082446.39.08.4012802-.000327.7635008-.2404951.92-.61 2.7201772-6.4724808 2.7201772-13.7675192 0-20.24-.2157051-.5077826-.8018944-.7449432-1.31-.53-.5077826.2157051-.7449432.8018944-.53 1.31 2.5067745 5.974368 2.5067745 12.705632 0 18.68-.2149432.5081056.0222174 1.0942949.53 1.31z"/><path id="Shape" d="m23.86 51.13 3.46 7.21c.5074905 1.0182435 1.5472977 1.6618016 2.685 1.6618016s2.1775095-.6435581 2.685-1.6618016l3.45-7.19c10.5170722-3.0566773 17.1841103-13.3838619 15.6403594-24.226782-1.543751-10.8429201-10.8280956-18.89904106-21.7803594-18.89904106s-20.23660843 8.05612096-21.78035936 18.89904106c-1.54375092 10.8429201 5.12328716 21.1701047 15.64035936 24.226782zm6.14-41.13c10.0375538.0004222 18.5199573 7.4408397 19.8284849 17.3927361s-4.9622079 19.332134-14.6584849 21.9272639c-.2820545.0777129-.5159304.2750457-.64.54l-3.63 7.58c-.1691635.3394145-.5157659.5539339-.895.5539339s-.7258365-.2145194-.895-.5539339l-3.64-7.6c-.1240696-.2649543-.3579455-.4622871-.64-.54-9.6587895-2.6246131-15.8901301-11.9851704-14.5846674-21.9087069s9.7457005-17.3540159 19.7546674-17.3912931z"/><path id="Shape" d="m21.38 31-1.31 8.49v.09.29.1c0 2.75 5.18 4 10 4s10-1.25 10-4c0 0 0-.06 0-.1v-.29s0-.06 0-.09l-1.3-7.49h.23c.8272003-.0028667 1.6470624-.1553204 2.42-.45 2.470039-1.0194524 4.213567-3.2730956 4.58-5.92.1967114-1.9784131-.4745791-3.9448565-1.84-5.39-1.4603245-1.643883-3.4984452-2.6611523-5.69-2.84-1.63-2.25-4.28-3.4-7.93-3.4-2.7421205.1302461-5.2941898 1.4390931-7 3.59v-.1c-3.59.34-6.92 2.54-8.09 5.33-.8223141 1.8708167-.4912324 4.0481662.85 5.59 1.2677513 1.5218859 3.1036692 2.4579149 5.08 2.59zm8.62 11c-5.18 0-7.92-1.45-8-2v-.08c.19-.56 2.92-1.94 8-1.94s7.79 1.38 8 1.94v.08c-.08.55-2.82 2-8 2zm-12.71-18.41c.9643923-1.865667 2.6770441-3.2328795 4.71-3.76-.054546.4018538.1390072.7968602.49 1 .151296.1021559.3276697.1609471.51.17.3607641-.0006217.6932259-.1955131.87-.51 0 0 2.58-4.49 6.66-4.49 1.9668228-.1363727 3.9147372.4583288 5.47 1.67-.4518527.1918874-.6976017.6833854-.58 1.16.067951.2578875.2360982.4779489.4670696.6112738s.5056298.1688668.7629304.0987262c.4041652-.1104306.8210267-.167581 1.24-.17 1.8065345.0510556 3.5114109.8473886 4.71 2.2.9986755 1.0140731 1.5092764 2.4109314 1.4 3.83-.3009095 1.9109337-1.5734375 3.5281048-3.36 4.27-.6981476.2629538-1.4481521.3588448-2.19.28l-.28-1.86c1.79-.54 2.86-1.71 2.87-3.27 0-.5522847-.4477153-1-1-1s-1 .4477153-1 1c0 1.31-2.21 1.56-2.65 1.6-1.3.1-3.8 0-3.92-1.17-.0277136-.2639475-.1592149-.5060524-.3655381-.6729866-.2063232-.1669343-.4705437-.2450042-.7344619-.2170134-.5453664.0578161-.9424141.544088-.89 1.09.0530407.4783698.2325248.9339833.52 1.32-.7795522.3382912-1.6710158.3014538-2.42-.1-.3167507-.1982151-.7175853-.2033013-1.0392636-.0131873s-.51053.5437087-.4896452.9167825c.0208848.3730739.2480216.7033814.5889088.8564048.6914765.3727486 1.4644561.5685701 2.25.57 1.0468532-.0252285 2.0600948-.3746221 2.9-1 .8673107.2866305 1.7766803.4252333 2.69.41h.74l.39 2.48 1 6.36c-2.4326584-.9022481-5.0165467-1.3266712-7.61-1.25-2.581364-.0651292-5.1512228.3660095-7.57 1.27l1.57-10.12c.0828427-.5522847-.2977153-1.0671573-.85-1.15s-1.0671573.2977153-1.15.85l-.32 2.15c-1.4840094-.0459409-2.8791778-.7180923-3.84-1.85-.8671303-.9754101-1.0823364-2.3683802-.55-3.56z"/></g></g></g></svg>