<svg width="150" height="150" xmlns="http://www.w3.org/2000/svg">

 <title/>
 <g>
  <title>background</title>
  <rect fill="none" id="canvas_background" height="402" width="582" y="-1" x="-1"/>
 </g>
 <g>
  <title>Layer 1</title>
  <circle fill="#13818d" id="svg_1" r="65" cy="75" cx="75" class="cls-1"/>
  <circle fill="#ffffff" id="svg_2" r="45.32" cy="75" cx="75" class="cls-2"/>
  <path fill="#44c2c7" id="svg_3" d="m75,112.339996a37.34,37.34 0 1 1 37.339996,-37.339996a37.380001,37.380001 0 0 1 -37.339996,37.339996zm0,-73.499996a36.16,36.16 0 1 0 36.160004,36.16a36.200001,36.200001 0 0 0 -36.160004,-36.16z" class="cls-3"/>
  <path fill="#13818d" id="svg_4" d="m72.690002,46.779999a0.54,0.54 0 0 0 -0.540001,0.550003l0,9.589996l0,0l0,0.210003a1,1 0 1 1 -2,0l0,-0.210003l0,0l0,-9.629997a0.54,0.54 0 1 0 -1.090004,0l0,9.84a1,1 0 1 1 -2,0l0,-9.84a0.54,0.54 0 1 0 -1.089996,0l0,9.84a1,1 0 1 1 -2,0l0,-0.210003l0,0l0,-9.629997a0.54,0.54 0 1 0 -1.09,0l0,9.629997l0,0l0,6.620003a5.17,5.17 0 0 0 3.73,5a65.93,65.93 0 0 1 0.159996,8.150002c-0.25,6 -1,13.699997 -0.949997,17.299995c0.059998,2.529999 0.790001,10.099998 0.790001,10.099998a1.46,1.46 0 0 0 2.919998,0s0.730003,-7.649994 0.790001,-10.209999c0.080002,-3.639999 -0.709999,-11.409996 -1,-17.439995a66,66 0 0 1 0.169998,-8.110001a4.93,4.93 0 0 0 3.730003,-4.75l0,-5.18l0,0l0,-11.07a0.55,0.55 0 0 0 -0.529999,-0.550003z" class="cls-1"/>
  <path fill="#13818d" id="svg_5" d="m79.190002,65.230003a24.879999,24.879999 0 0 0 4.32,13.489998s0,5.869995 0,7.389999c-0.099998,4.459999 -0.790001,17.830002 -0.790001,17.830002a2.93,2.93 0 0 0 2.190002,1.189995a2.87,2.87 0 0 0 2.25,-1.189995s-0.510002,-13.310005 -0.610001,-17.75c-0.230003,-10.420006 -0.18,-41.690002 -0.18,-41.690002s-7.18,7.130001 -7.18,20.730003z" class="cls-1"/>
 </g>
</svg>