<svg width="68" height="68" xmlns="http://www.w3.org/2000/svg">

 <title/>
 <g>
  <title>background</title>
  <rect fill="none" id="canvas_background" height="402" width="582" y="-1" x="-1"/>
 </g>
 <g>
  <title>Layer 1</title>
  <path fill="#404a6b" id="svg_1" d="m33,44.330002l0,0.029999l0.459999,0c0.23,0.009998 0.470001,0.009998 0.720001,0.009998c0.279999,0 0.560001,0 0.82,-0.009998l0,-0.029999c-0.66,0.019997 -1.330002,0.009998 -2,0zm-4.49,-0.300003a0.09,0.09 0 0 0 -0.050001,-0.009998c-0.519999,-0.060001 -1.019999,-0.119999 -1.459999,-0.200001l0,0.049999c0.610001,0.110001 1.280001,0.200001 2,0.27l0,-0.059998c-0.17,-0.02 -0.33,-0.030003 -0.49,-0.050003z" class="cls-1"/>
  <path stroke="#999999" stroke-opacity="0" fill="#999999" id="svg_2" d="m42.506294,24.115553a7.4518,7.4518 0 0 0 -1.060001,0.08a8.2042,8.2042 0 0 0 -14.599995,0a7.4518,7.4518 0 0 0 -1.060001,-0.08a7.138,7.138 0 0 0 -1.860001,14.030001l0,4.350002a10.1257,10.1257 0 0 0 3.220001,1.029999l0,-4.75a1,1 0 0 1 2,0l0,5.07c1.110001,0.130001 2.439999,0.23 4,0.259998l0,-5.329998a1,1 0 0 1 2,0l0,5.34c1.57,-0.02 2.889999,-0.110001 3.999996,-0.23l0,-5.110001a1,1 0 0 1 2,0l0,4.799999a8.6314,8.6314 0 0 0 3.220001,-1.079998l0,-4.350002a7.138,7.138 0 0 0 -1.860001,-14.030001zm2.360001,20.480001a0.9775,0.9775 0 0 0 -0.5,-0.099998a8.6314,8.6314 0 0 1 -3.220001,1.079998l0,0.029999c-0.59,0.120003 -1.240002,0.200001 -1.93,0.27a0.17,0.17 0 0 0 -0.07,0.010002c-1.109997,0.119999 -2.429996,0.209999 -3.999996,0.23c-0.259998,0.009998 -0.540001,0.009998 -0.82,0.009998c-0.25,0 -0.490002,0 -0.720001,-0.009998l-0.459999,0l0,-0.010002c-1.560001,-0.029999 -2.889999,-0.129997 -4,-0.259998l0,0.049999c-0.720001,-0.07 -1.389999,-0.16 -2,-0.27l0,-0.099998a10.1257,10.1257 0 0 1 -3.220001,-1.029999a1.0107,1.0107 0 0 0 -1.16,0.989998l0,3.689999c0,0.640003 0,2.600002 11.889999,2.600002a50.523998,50.523998 0 0 0 6.889999,-0.400002c1.919998,-0.27 3.879997,-0.75 3.879997,-2.200001l0,-3.689999a0.9861,0.9861 0 0 0 -0.559998,-0.889999z" class="cls-1"/>
  <path fill="#404a6b" id="svg_3" d="m39.68,44.040001a0.7719,0.7719 0 0 0 -0.150002,0.02c-0.169998,0.02 -0.349998,0.039997 -0.529999,0.059998l0,0.010002a0.17,0.17 0 0 1 0.07,-0.010002c0.689999,-0.07 1.34,-0.149998 1.93,-0.27l0,-0.009998c-0.41,0.07 -0.849998,0.139999 -1.32,0.200001z" class="cls-1"/>
  <path fill="#999999" id="svg_4" d="m35,44.330002l0,0.029999c-0.259998,0.009998 -0.540001,0.009998 -0.82,0.009998c-0.25,0 -0.490002,0 -0.720001,-0.009998l-0.459999,0l0,-0.029999c0.669998,0.009998 1.34,0.019997 2,0z" class="cls-1"/>
  <path fill="#404a6b" id="svg_5" d="m41,43.84l0,0.009998c-0.59,0.120003 -1.240002,0.200001 -1.93,0.27a0.17,0.17 0 0 0 -0.07,0.010002l0,-0.010002c0.18,-0.02 0.360001,-0.039997 0.529999,-0.059998a0.7719,0.7719 0 0 1 0.150002,-0.02c0.470001,-0.060001 0.91,-0.130001 1.32,-0.200001z" class="cls-1"/>
  <path fill="#404a6b" id="svg_6" d="m29,43.933704l0,0.059998c-0.719999,-0.07 -1.389999,-0.16 -2,-0.27l0,-0.049999c0.440001,0.080002 0.940001,0.139999 1.459999,0.200001a0.09,0.09 0 0 1 0.050001,0.009998c0.16,0.02 0.32,0.030003 0.49,0.050003z" class="cls-1"/>
  <path fill="#999999" id="svg_7" d="m30.33,55.389999a1.6837,1.6837 0 0 0 -1.23,0.529999a21.1336,21.1336 0 0 1 -8.190001,-3.82a0.642,0.642 0 0 0 -0.129999,-0.099998a21.2836,21.2836 0 0 1 -8.23,-16.779999l0,-0.010002a21.246799,21.246799 0 0 1 7.94,-16.559999a4.9162,4.9162 0 0 0 0.450001,-0.279999l0.01,-0.01c0.199999,-0.130001 0.509998,-0.300001 0.889999,-0.5c2.67,-1.450001 8.93,-4.830001 8.440001,-11.33a0.993,0.993 0 0 0 -0.99,-0.92a10.38,10.38 0 0 0 -6.860001,2.95c-1.970001,2 -2.99,4.839999 -3.040001,8.419999a0.5547,0.5547 0 0 0 -0.08,0.060001a22.4168,22.4168 0 0 0 -3.24,3.139999c0.059999,-3.220001 -0.62,-7.690001 -4.21,-10.6a0.9891,0.9891 0 0 0 -0.839999,-0.2a1.0053,1.0053 0 0 0 -0.690001,0.53c-0.14,0.29 -3.44,7.07 -1.16,11.5a6.2808,6.2808 0 0 0 3.96,3.139999a22.1194,22.1194 0 0 0 -2.1,6.01c-1.349999,-2.769999 -3.81,-5.869999 -8.11,-6.309999a0.9971,0.9971 0 0 0 -0.77,0.26a0.9635,0.9635 0 0 0 -0.33,0.73c0,0.33 0.01,6.42 3.55,9.440001a6.9459,6.9459 0 0 0 4.68,1.66a4.7845,4.7845 0 0 0 0.53,-0.02a22.818199,22.818199 0 0 0 1.39,6.869999a15.6025,15.6025 0 0 0 -10.15,0.52a0.9979,0.9979 0 0 0 -0.59,0.630001a0.972,0.972 0 0 0 0.12,0.860001c0.12,0.18 2.98,4.41 6.96,4.450001l0.07,0a7.076,7.076 0 0 0 5.309999,-2.800003a23.064899,23.064899 0 0 0 3.95,5.07c-2.99,0.460003 -7.48,2.330002 -8.469999,9.330002a0.9889,0.9889 0 0 0 0.26,0.82a0.97,0.97 0 0 0 0.73,0.32l0.07,0c0.080001,-0.009998 8.23,-0.649998 10.6,-7.899998a22.7827,22.7827 0 0 0 8.02,3.419998a1.6966,1.6966 0 1 0 1.48,-2.52z" class="cls-1"/>
  <path fill="#999999" id="svg_8" d="m66.769997,44.34a0.9979,0.9979 0 0 0 -0.589996,-0.630001a15.6025,15.6025 0 0 0 -10.150002,-0.52a22.818199,22.818199 0 0 0 1.389999,-6.869999a4.7845,4.7845 0 0 0 0.530003,0.02a6.9459,6.9459 0 0 0 4.68,-1.66c3.539997,-3.02 3.549999,-9.110001 3.549999,-9.440001a0.9635,0.9635 0 0 0 -0.330002,-0.73a0.9971,0.9971 0 0 0 -0.769997,-0.26c-4.300003,0.440001 -6.760002,3.540001 -8.110001,6.309999a22.1194,22.1194 0 0 0 -2.100002,-6.01a6.2808,6.2808 0 0 0 3.960003,-3.139999c2.279999,-4.43 -1.02,-11.21 -1.160004,-11.5a1.0053,1.0053 0 0 0 -0.689999,-0.53a0.9891,0.9891 0 0 0 -0.84,0.2c-3.59,2.91 -4.27,7.379999 -4.209999,10.6a22.4168,22.4168 0 0 0 -3.240002,-3.139999a0.5547,0.5547 0 0 0 -0.079998,-0.060001c-0.049999,-3.58 -1.07,-6.419999 -3.040001,-8.419999a10.38,10.38 0 0 0 -6.860001,-2.95a0.993,0.993 0 0 0 -0.989998,0.92c-0.490002,6.5 5.77,9.88 8.439999,11.33c0.380001,0.209999 0.700001,0.369999 0.880001,0.49c0,0.01 0.009998,0.01 0.02,0.02a4.9162,4.9162 0 0 0 0.449997,0.279999a21.246799,21.246799 0 0 1 7.940002,16.559999l0,0.010002a21.2878,21.2878 0 0 1 -8.360001,16.879997a21.025801,21.025801 0 0 1 -8.360001,3.860001a1.672,1.672 0 0 0 -1.040001,-0.419998a1.7014,1.7014 0 0 0 -0.139999,3.399998a1.6772,1.6772 0 0 0 1.630001,-1.039997a22.802401,22.802401 0 0 0 7.989998,-3.41c2.370003,7.25 10.52,7.889999 10.600002,7.899998l0.07,0a0.97,0.97 0 0 0 0.73,-0.32a0.9889,0.9889 0 0 0 0.260002,-0.82c-0.990002,-7 -5.480003,-8.869999 -8.470001,-9.330002a23.064899,23.064899 0 0 0 3.950001,-5.07a7.076,7.076 0 0 0 5.309998,2.800003l0.07,0c3.98,-0.040001 6.84,-4.27 6.960003,-4.450001a0.972,0.972 0 0 0 0.119995,-0.860001z" class="cls-1"/>
 </g>
</svg>